<svg width="56" height="56" viewBox="0 0 56 56" fill="none" xmlns="http://www.w3.org/2000/svg">
<g filter="url(#filter0_b_149_575)">
<rect x="0.971924" y="0.962608" width="54.0384" height="55.0384" rx="5.83973" fill="#342E6C" fill-opacity="0.3"/>
<path d="M21.1617 26.8956C21.1617 25.2797 21.825 24.1571 23.577 24.1571C25.0908 24.1571 25.5501 25.1267 25.5501 26.0962C25.5501 27.7631 24.1723 28.3244 22.0121 29.7532C20.2092 30.8928 18.9675 32.4067 18.9675 34.4818H27.4041V32.8149H21.5359V32.7809C22.5054 30.3825 27.5232 29.7532 27.5232 26.0111C27.5232 23.7659 25.8052 22.4732 23.628 22.4732C20.6174 22.4732 19.2566 24.3612 19.2566 26.8956H21.1617ZM28.5004 25.79L31.443 30.0424L28.1942 34.4818H30.2864L32.4976 31.216H32.5316L34.7769 34.4818H36.852L33.6032 30.0424L36.5288 25.79H34.5047L32.5316 28.8517H32.4976L30.5245 25.79H28.5004Z" fill="white"/>
</g>
<defs>
<filter id="filter0_b_149_575" x="-4.86781" y="-4.87713" width="65.7179" height="66.7179" filterUnits="userSpaceOnUse" color-interpolation-filters="sRGB">
<feFlood flood-opacity="0" result="BackgroundImageFix"/>
<feGaussianBlur in="BackgroundImageFix" stdDeviation="2.91987"/>
<feComposite in2="SourceAlpha" operator="in" result="effect1_backgroundBlur_149_575"/>
<feBlend mode="normal" in="SourceGraphic" in2="effect1_backgroundBlur_149_575" result="shape"/>
</filter>
</defs>
</svg>
