<svg width="50" height="50" viewBox="0 0 50 50" fill="none" xmlns="http://www.w3.org/2000/svg">
<circle cx="25" cy="25" r="25" fill="#E8E8E8"/>
<path d="M32.27 18.33C30.94 17.71 29.5 17.26 28 17C27.9868 16.9996 27.9738 17.0021 27.9617 17.0073C27.9496 17.0125 27.9388 17.0202 27.93 17.03C27.75 17.36 27.54 17.79 27.4 18.12C25.809 17.88 24.191 17.88 22.6 18.12C22.46 17.78 22.25 17.36 22.06 17.03C22.05 17.01 22.02 17 21.99 17C20.49 17.26 19.06 17.71 17.72 18.33C17.71 18.33 17.7 18.34 17.69 18.35C14.97 22.42 14.22 26.38 14.59 30.3C14.59 30.32 14.6 30.34 14.62 30.35C16.42 31.67 18.15 32.47 19.86 33C19.89 33.01 19.92 33 19.93 32.98C20.33 32.43 20.69 31.85 21 31.24C21.02 31.2 21 31.16 20.96 31.15C20.39 30.93 19.85 30.67 19.32 30.37C19.28 30.35 19.28 30.29 19.31 30.26C19.42 30.18 19.53 30.09 19.64 30.01C19.66 29.99 19.69 29.99 19.71 30C23.15 31.57 26.86 31.57 30.26 30C30.28 29.99 30.31 29.99 30.33 30.01C30.44 30.1 30.55 30.18 30.66 30.27C30.7 30.3 30.7 30.36 30.65 30.38C30.13 30.69 29.58 30.94 29.01 31.16C28.97 31.17 28.96 31.22 28.97 31.25C29.29 31.86 29.65 32.44 30.04 32.99C30.07 33 30.1 33.01 30.13 33C31.85 32.47 33.58 31.67 35.38 30.35C35.4 30.34 35.41 30.32 35.41 30.3C35.85 25.77 34.68 21.84 32.31 18.35C32.3 18.34 32.29 18.33 32.27 18.33ZM21.52 27.91C20.49 27.91 19.63 26.96 19.63 25.79C19.63 24.62 20.47 23.67 21.52 23.67C22.58 23.67 23.42 24.63 23.41 25.79C23.41 26.96 22.57 27.91 21.52 27.91ZM28.49 27.91C27.46 27.91 26.6 26.96 26.6 25.79C26.6 24.62 27.44 23.67 28.49 23.67C29.55 23.67 30.39 24.63 30.38 25.79C30.38 26.96 29.55 27.91 28.49 27.91Z" fill="black"/>
</svg>
