<svg width="50" height="50" viewBox="0 0 50 50" fill="none" xmlns="http://www.w3.org/2000/svg">
<circle cx="25" cy="25" r="25" fill="#E8E8E8"/>
<path d="M34.6 25.12C34.6 23.92 33.64 22.96 32.44 23.08C31.96 23.08 31.36 23.32 31 23.68C29.32 22.6 27.4 21.88 25.36 21.88L26.32 17.32L29.44 18.04C29.44 18.88 30.16 19.48 31 19.48C31.84 19.48 32.44 18.76 32.44 17.92C32.44 17.08 31.72 16.48 30.88 16.48C30.28 16.48 29.8 16.84 29.56 17.32L26.2 16.48H25.96C25.84 16.48 25.84 16.6 25.84 16.72L24.64 21.88C22.6 21.88 20.68 22.48 19 23.68C18.16 22.84 16.84 22.84 16 23.68C15.16 24.52 15.16 25.84 16 26.68C16.12 26.8 16.36 27.04 16.6 27.04V27.64C16.6 30.88 20.32 33.52 25 33.52C29.68 33.52 33.4 30.88 33.4 27.64V27.04C34.12 26.68 34.6 25.96 34.6 25.12ZM20.2 26.68C20.2 25.84 20.92 25.24 21.64 25.24C22.48 25.24 23.08 25.96 23.08 26.68C23.08 27.4 22.36 28.12 21.64 28.12C20.8 28.12 20.2 27.52 20.2 26.68ZM28.6 30.64C27.52 31.36 26.32 31.84 25 31.72C23.68 31.72 22.48 31.36 21.4 30.64C21.28 30.52 21.28 30.28 21.4 30.04C21.52 29.92 21.76 29.92 21.88 30.04C22.72 30.64 23.8 31 24.88 30.88C25.96 31 27.04 30.64 27.88 30.04C28 29.92 28.24 29.92 28.48 30.04C28.72 30.16 28.72 30.4 28.6 30.64ZM28.24 28.12C27.4 28.12 26.8 27.4 26.8 26.68C26.8 25.96 27.52 25.24 28.24 25.24C29.08 25.24 29.68 25.96 29.68 26.68C29.8 27.52 29.08 28.12 28.24 28.12Z" fill="black"/>
</svg>
