<svg width="50" height="50" viewBox="0 0 50 50" fill="none" xmlns="http://www.w3.org/2000/svg">
<circle cx="25" cy="25" r="25" fill="#E8E8E8"/>
<path d="M36.25 18.1328C35.406 18.4995 34.513 18.7412 33.5992 18.85C34.5595 18.2877 35.2817 17.3943 35.6303 16.3375C34.7224 16.8684 33.7307 17.2409 32.6978 17.4391C32.2629 16.9832 31.7397 16.6206 31.1603 16.3732C30.5808 16.1258 29.9571 15.9988 29.327 16C26.7761 16 24.7117 18.0344 24.7117 20.5422C24.7099 20.891 24.7499 21.2388 24.8308 21.5781C23.0016 21.4924 21.2104 21.0258 19.5719 20.2081C17.9333 19.3904 16.4835 18.2398 15.3152 16.8297C14.9053 17.5207 14.6885 18.3091 14.6875 19.1125C14.6875 20.6875 15.5092 22.0797 16.75 22.8953C16.0149 22.8779 15.2948 22.6833 14.6509 22.3281V22.3844C14.6509 24.5875 16.2447 26.4203 18.3541 26.8375C17.9574 26.9432 17.5486 26.9968 17.1381 26.9969C16.8468 26.9974 16.5562 26.9691 16.2705 26.9125C16.8569 28.7172 18.5636 30.0297 20.5853 30.0672C18.9425 31.3333 16.9256 32.0175 14.8516 32.0125C14.4834 32.012 14.1156 31.99 13.75 31.9469C15.8599 33.2942 18.3126 34.0068 20.8159 34C29.3172 34 33.9616 27.0766 33.9616 21.0719C33.9616 20.875 33.9564 20.6781 33.947 20.4859C34.8485 19.8447 35.6283 19.0479 36.25 18.1328Z" fill="black"/>
</svg>
