<svg width="50" height="50" viewBox="0 0 50 50" fill="none" xmlns="http://www.w3.org/2000/svg">
<circle cx="25" cy="25" r="25" fill="#E8E8E8"/>
<path d="M35.0575 19.945C34.938 19.5011 34.7039 19.0963 34.3788 18.7712C34.0537 18.446 33.6489 18.212 33.205 18.0925C31.57 17.65 25 17.65 25 17.65C25 17.65 18.43 17.65 16.795 18.0925C16.351 18.212 15.9462 18.446 15.6211 18.7712C15.296 19.0963 15.062 19.5011 14.9425 19.945C14.6372 21.6125 14.489 23.3049 14.5 25C14.489 26.6952 14.6372 28.3876 14.9425 30.055C15.062 30.499 15.296 30.9038 15.6211 31.2289C15.9462 31.554 16.351 31.788 16.795 31.9075C18.43 32.35 25 32.35 25 32.35C25 32.35 31.57 32.35 33.205 31.9075C33.6489 31.788 34.0537 31.554 34.3788 31.2289C34.7039 30.9038 34.938 30.499 35.0575 30.055C35.3627 28.3876 35.5109 26.6952 35.5 25C35.5109 23.3049 35.3627 21.6125 35.0575 19.945ZM22.9 28.15V21.85L28.3525 25L22.9 28.15Z" fill="black"/>
</svg>
